<svg xmlns="http://www.w3.org/2000/svg" xmlns:xlink="http://www.w3.org/1999/xlink" viewBox="0 0 278.41 168.3"><defs><style>.cls-1{fill:#f15a24;}.cls-2{fill:url(#radial-gradient);}.cls-3{fill:url(#linear-gradient);}.cls-4{fill:url(#linear-gradient-2);}.cls-5{fill:#636365;}</style><radialGradient id="radial-gradient" cx="53.22" cy="85.97" r="59.56" gradientUnits="userSpaceOnUse"><stop offset="0" stop-color="#fbb03b"/><stop offset="0.23" stop-color="#f9a237"/><stop offset="0.66" stop-color="#f57c2d"/><stop offset="1" stop-color="#f15a24"/></radialGradient><linearGradient id="linear-gradient" x1="23.24" y1="35.41" x2="-5.65" y2="24.89" gradientUnits="userSpaceOnUse"><stop offset="0" stop-color="#f15a24"/><stop offset="0.64" stop-color="#f7931e"/><stop offset="0.68" stop-color="#f68e1f"/><stop offset="1" stop-color="#f15a24"/></linearGradient><linearGradient id="linear-gradient-2" x1="35.03" y1="12.06" x2="20.02" y2="6.59" gradientUnits="userSpaceOnUse"><stop offset="0" stop-color="#f16522"/><stop offset="0.64" stop-color="#f6921e"/><stop offset="1" stop-color="#f16522"/></linearGradient></defs><title>Asset 1</title><g id="Layer_2" data-name="Layer 2"><g id="Layer_1-2" data-name="Layer 1"><path class="cls-1" d="M125.41,116.35l-14.87,43.51a15,15,0,0,1-3.72,6.23,9.45,9.45,0,0,1-6.68,2.21c-1.14,0-2.79-.09-5-.26v-6.86l4.13.08a7.31,7.31,0,0,0,4-.89,6,6,0,0,0,2.06-3.16,16.48,16.48,0,0,0,.76-2.65,18,18,0,0,0-.8-2.34L92.23,116.35h9l9.27,25.2,8-25.2Z"/><path class="cls-1" d="M136.15,155.19h-8.63l0-38.84h7.79v9.11q1.66-5.33,4.57-7.79a9.24,9.24,0,0,1,6-2.46c.28,0,.66,0,1.14,0v9.27q-6.59,0-8.72,4.2a17.84,17.84,0,0,0-2.14,8.14Z"/><path class="cls-1" d="M172,142.38l7.8,1.06a16.34,16.34,0,0,1-5.9,8.55,17.54,17.54,0,0,1-11,3.37A16.44,16.44,0,0,1,150.07,150q-4.84-5.33-4.85-14.45,0-8.67,4.89-14.34t13.24-5.68q8.18,0,12.64,5.6t4.46,14.38l0,1H154.19a21.53,21.53,0,0,0,.74,6.24,8.44,8.44,0,0,0,2.93,4.09,8.65,8.65,0,0,0,5.49,1.74Q169.74,148.59,172,142.38ZM171.45,131a9.6,9.6,0,0,0-2.48-6.73,8.37,8.37,0,0,0-12-.17,11,11,0,0,0-2.8,6.9Z"/><path class="cls-2" d="M98.3,99.76A27.49,27.49,0,0,0,96.63,96,41.7,41.7,0,0,0,78.11,76.34a67,67,0,0,0-11.4-5.9c-20-8-29.08-42.73-25.19-54.06,0,0-6.52,19.65-7.46,31.64s-8.5,35.53,16.22,49.71c-.16-.13-2,.58-7.78-2.94C37,90.73,26.2,79.79,30.16,57.9,33.63,38.81,27.31,28.7,22.57,24a18.6,18.6,0,0,0-4.51-3.41s14.24,9.51,2.12,32.1A22.85,22.85,0,0,0,18.32,71,125.88,125.88,0,0,0,5.75,61.88C17,74.18,17.61,95.72,17,107a46.58,46.58,0,0,0,1.68,19.67c4.95,14.78,17.78,26,32.05,28.86v-61H91.22v10.31H62.15l0,14.25,21.53,0,0,10.63-21.38,0v25.83c33.41-.05,43.44-33.51,36.09-55.46Z"/><path class="cls-3" d="M15.8,53.52S22.2,41.18,9,29,1.08,6.52,1.08,6.52s-3.39,9.85,10.8,16.33C26.54,29.55,18.93,50.13,15.8,53.52Z"/><path class="cls-4" d="M32.49,19S26.75,17.82,28,9.63,22.41,0,22.41,0C24.84-.08,35,3.38,31.3,10.45,27.74,17.29,32.49,19,32.49,19Z"/><path class="cls-5" d="M196.79,154.06c-5,0-9-1.8-12-6.91l2.37-1.73c2.53,4.1,5.55,5.9,9.73,5.9,5.61,0,8.28-2.95,8.28-6.91,0-3.74-2.09-6.12-10.73-9-6.56-2.16-9.29-6-9.29-10.08,0-5,4-8.93,11.16-8.93a14,14,0,0,1,11.52,5.9l-2.38,1.8a11,11,0,0,0-9.21-5c-4.61,0-7.71,2.09-7.71,6.27,0,3.74,2.45,5.61,8.14,7.63,8.93,3.24,11.81,6.34,11.81,11.23C208.46,149.88,204.28,154.06,196.79,154.06Zm18.58-47.16a2.56,2.56,0,1,1,0-5.12,2.56,2.56,0,0,1,0,5.12Zm-1.59,46.37V117.19h3.1v36.08Zm22.18.86c-4.18,0-7.56-3.45-7.56-9.07v-25.2h-5.83v-2.67h5.83V102.65h3.17v14.54h8.35v2.67h-8.35v25.92c0,3.6,2.3,5.62,4.82,5.62a5.38,5.38,0,0,0,3.67-1.59v3.24A8.91,8.91,0,0,1,236,154.13Zm35.35-18.22H245.25c.21,9.22,5,15.49,11.59,15.49a11.17,11.17,0,0,0,9.65-5.69l2.74,1.73a14.4,14.4,0,0,1-12.39,6.76c-8.78,0-15-7.63-15-18.93s6-18.94,14.76-18.94,14.77,7.63,14.77,18.94C271.39,135.48,271.31,135.7,271.31,135.91Zm-14.69-16.77c-6.33,0-10.72,5.61-11.3,14.18h22.61C267.35,124.75,262.89,119.14,256.62,119.14Z"/><path class="cls-5" d="M271.07,115.81a3.66,3.66,0,0,1,3.67-3.67,3.59,3.59,0,0,1,1.83.49,3.55,3.55,0,0,1,1.35,1.34,3.62,3.62,0,0,1,.49,1.84,3.7,3.7,0,0,1-.47,1.81,3.66,3.66,0,0,1-1.33,1.35,3.68,3.68,0,0,1-3.74,0,3.52,3.52,0,0,1-1.33-1.35A3.57,3.57,0,0,1,271.07,115.81Zm.51,0a3.11,3.11,0,0,0,.42,1.58,3.15,3.15,0,0,0,2.74,1.58,3.08,3.08,0,0,0,1.57-.42,3.16,3.16,0,0,0,1.59-2.74,3,3,0,0,0-.43-1.57,3.13,3.13,0,0,0-4.31-1.16,3.17,3.17,0,0,0-1.15,1.15A3,3,0,0,0,271.58,115.81Zm4.65-.88a1.12,1.12,0,0,1-.21.68,1.19,1.19,0,0,1-.58.45L276.6,118h-.82l-1-1.73h-.66V118h-.73v-4.35h1.28a1.84,1.84,0,0,1,1.19.32A1.19,1.19,0,0,1,276.23,114.93Zm-2.12.73h.52a.88.88,0,0,0,.63-.2.66.66,0,0,0,.24-.52.6.6,0,0,0-.21-.52,1.08,1.08,0,0,0-.67-.16h-.51Z"/></g></g></svg>