<?xml version="1.0" encoding="UTF-8"?>
<svg width="21px" height="14px" viewBox="0 0 21 14" version="1.1" xmlns="http://www.w3.org/2000/svg" xmlns:xlink="http://www.w3.org/1999/xlink">
    <!-- Generator: Sketch 64 (93537) - https://sketch.com -->
    <title>iconspace_Windy_25px</title>
    <desc>Created with Sketch.</desc>
    <g id="Symbols" stroke="none" stroke-width="1" fill="none" fill-rule="evenodd" opacity="0.300000012">
        <g id="cards/weather/day" transform="translate(-32.000000, -257.000000)">
            <g id="Today">
                <g transform="translate(30.000000, 80.000000)">
                    <g id="Precep/Hum/Wind" transform="translate(0.000000, 110.000000)">
                        <g id="Wind" transform="translate(0.000000, 61.000000)">
                            <g id="iconspace_Windy_25px">
                                <polygon id="Path" points="0 0 25 0 25 25 0 25"></polygon>
                                <path d="M21.1153846,10 C20.8392422,10 20.6153846,9.77614237 20.6153846,9.5 C20.6153846,9.22385763 20.8392422,9 21.1153846,9 C22.2114238,9 23,9.87975538 23,10.9968182 C23,12.1013877 22.1045695,12.9968181 20.9996818,12.9968181 L18.4996818,12.9952272 C18.2235395,12.9950515 17.9998244,12.7710514 18,12.4949091 C18.0001758,12.2187668 18.2241759,11.9950517 18.5003182,11.9952274 L21,11.9968182 C21.5522848,11.9968182 22,11.5491029 22,10.9968182 C22,10.4091333 21.6332699,10 21.1153846,10 Z M11.4987274,10 L6.50031829,10.0031819 C5.83365176,10.0036061 5.8330152,9.00360632 6.49968173,9.00318194 L11.4980908,9 C12.1647574,8.99957576 12.1653939,9.99957556 11.4987274,10 Z" id="Path" fill="#2E2E2E" fill-rule="nonzero"></path>
                                <path d="M14.4210526,13 L4,13 C3.44771525,13 3,13.4477153 3,14 C3,14.5522847 3.44771525,15 4,15 L4.88461538,15 C5.16075776,15 5.38461538,15.2238576 5.38461538,15.5 C5.38461538,15.7761424 5.16075776,16 4.88461538,16 L4,16 C2.8954305,16 2,15.1045695 2,14 C2,12.8954305 2.8954305,12 4,12 L14.4210526,12 C15.8482309,12 17,10.8777634 17,9.5 C17,8.12223658 15.8482309,7 14.4210526,7 L14.1842105,7 C13.9080682,7 13.6842105,6.77614237 13.6842105,6.5 C13.6842105,6.22385763 13.9080682,6 14.1842105,6 L14.4210526,6 C16.3947857,6 18,7.56405492 18,9.5 C18,11.4359451 16.3947857,13 14.4210526,13 Z M17.5,16 C17.2238576,16 17,15.7761424 17,15.5 C17,15.2238576 17.2238576,15 17.5,15 L20,15 C21.1045695,15 22,15.8954305 22,17 C22,18.1045695 21.1045695,19 20,19 L19.2692308,19 C18.9930884,19 18.7692308,18.7761424 18.7692308,18.5 C18.7692308,18.2238576 18.9930884,18 19.2692308,18 L20,18 C20.5522847,18 21,17.5522847 21,17 C21,16.4477153 20.5522847,16 20,16 L17.5,16 Z M7.5,16 C7.22385763,16 7,15.7761424 7,15.5 C7,15.2238576 7.22385763,15 7.5,15 L13.6913043,15 C14.9781997,15 16,16.1298753 16,17.5 C16,18.8701247 14.9781997,20 13.6913043,20 L13.5521739,20 C13.2760315,20 13.0521739,19.7761424 13.0521739,19.5 C13.0521739,19.2238576 13.2760315,19 13.5521739,19 L13.6913043,19 C14.4022391,19 15,18.3390143 15,17.5 C15,16.6609857 14.4022391,16 13.6913043,16 L7.5,16 Z" id="Path" fill="#2E2E2E" fill-rule="nonzero"></path>
                            </g>
                        </g>
                    </g>
                </g>
            </g>
        </g>
    </g>
</svg>