<?xml version="1.0" encoding="UTF-8"?>
<svg width="55px" height="84px" viewBox="0 0 55 84" version="1.1" xmlns="http://www.w3.org/2000/svg" xmlns:xlink="http://www.w3.org/1999/xlink">
    <!-- Generator: Sketch 64 (93537) - https://sketch.com -->
    <title>logo</title>
    <desc>Created with Sketch.</desc>
    <g id="Weather-App" stroke="none" stroke-width="1" fill="none" fill-rule="evenodd" opacity="0.300000012">
        <g id="Welcome" transform="translate(-485.000000, -374.000000)" fill="#000000" fill-rule="nonzero">
            <g id="container" transform="translate(369.000000, 374.000000)">
                <g id="logo" transform="translate(116.000000, 0.000000)">
                    <path d="M22.345,8.847 L22.2874157,9.0275815 C20.3734167,15.3305106 25.2890524,33.6419775 35.9205207,37.9310929 C38.2606746,38.8766313 40.2912131,39.9584006 42.0600592,41.1042467 C46.3478284,43.3797852 49.9167515,47.0294775 52.0323669,51.7022467 C52.6769054,52.9401698 52.9283669,53.7171698 52.9283669,53.7171698 L52.9283669,53.7171698 L52.9859823,53.8980929 C53.8857515,56.5887852 54.2955207,59.600939 54.1883669,62.6480929 L54.1883669,62.6480929 L54.5308284,62.6480929 C54.642901,63.6486452 54.5287471,64.8660453 54.1883669,66.300293 C53.8479867,67.7345407 53.3237046,69.2072945 52.6155207,70.7185544 C49.93129,77.9188621 43.7777515,83.7493236 33.5502131,83.764939 L33.5502131,83.764939 L33.5502131,69.8543236 L45.0657515,69.869939 L45.0442131,64.1466313 L33.4495207,64.1256313 L33.4629823,56.4536313 L49.1198284,56.4600929 L49.1198284,50.9064006 L27.3255977,50.9064006 L27.3255977,83.7364006 C19.6439054,82.2055544 12.7322131,76.1532467 10.0684438,68.1931698 C8.31305921,62.9453236 9.16705921,57.6027083 9.16705921,57.6027083 C9.48098228,51.5390929 9.16759767,39.9395544 3.09859767,33.3164775 C3.09859767,33.3164775 6.10698228,35.1682467 9.86167459,38.2525544 C8.90698228,35.2404006 8.98344382,31.8933236 10.8680592,28.3777083 C17.3920592,16.2133236 9.72382844,11.0898621 9.72382844,11.0898621 C9.72382844,11.0898621 10.8239054,11.6121698 12.1549823,12.9292467 C14.7051361,15.4546313 18.1071361,20.8941698 16.2408284,31.1734006 C14.1063669,42.9624775 19.8969823,48.8527083 22.88329,51.039939 C25.8206575,52.8315501 26.8699877,52.5886342 27.0491846,52.6137225 L27.062,52.616 L26.6778207,52.3908701 C13.970858,44.8115366 17.7569923,32.4983951 18.3218711,26.0510777 L18.3381361,25.8555544 C18.8226551,19.6889964 22.0462867,9.75892216 22.3339987,8.88202512 L22.345,8.847 Z M0.580213052,3.50940056 C0.580213052,3.50940056 -1.24571002,8.81647749 6.39505921,12.3046313 C14.2894438,15.9112467 10.1939054,26.994939 8.50475151,28.8165544 C8.50475151,28.8165544 11.9530592,22.1724775 4.82167459,15.6366313 C-2.31294079,9.10670826 0.580213052,3.50940056 0.580213052,3.50940056 Z M12.0699054,0.000785179445 C13.3745977,-0.0439071282 18.8308284,1.81916979 16.8535977,5.62609287 C14.9350592,9.31078518 17.49329,10.250939 17.49329,10.250939 C17.49329,10.250939 14.4014438,9.59616979 15.0734438,5.18401595 C15.7427515,0.774015949 12.0693669,0.000785179445 12.0699054,0.000785179445 Z" id="Combined-Shape"></path>
                </g>
            </g>
        </g>
    </g>
</svg>