<?xml version="1.0" encoding="UTF-8"?>
<svg width="22px" height="12px" viewBox="0 0 22 12" version="1.1" xmlns="http://www.w3.org/2000/svg" xmlns:xlink="http://www.w3.org/1999/xlink">
    <!-- Generator: Sketch 64 (93537) - https://sketch.com -->
    <title>HumidityIcon</title>
    <desc>Created with Sketch.</desc>
    <g id="Symbols" stroke="none" stroke-width="1" fill="none" fill-rule="evenodd" opacity="0.300000012">
        <g id="cards/weather/day" transform="translate(-32.000000, -227.000000)" fill="#000000" fill-rule="nonzero">
            <g id="Today">
                <g transform="translate(30.000000, 80.000000)">
                    <g id="Precep/Hum/Wind" transform="translate(0.000000, 110.000000)">
                        <g id="Humidity" transform="translate(2.000000, 35.000000)">
                            <g id="HumidityIcon" transform="translate(0.000000, 2.000000)">
                                <path d="M14.6153845,8.76922068 C15.0189759,8.76922068 15.3461537,9.09640747 15.3461537,9.49999991 C15.3461537,9.87476475 15.0602992,10.2307691 14.6153845,10.2307691 C13.4921279,10.2307953 12.6252209,11.6923336 10.9634853,11.6923336 C9.30174982,11.6923336 8.4574385,10.2307888 7.30769224,10.2307691 C6.15794599,10.2307495 5.33586898,11.6923336 3.65384612,11.6923336 C2.48512024,11.6923336 1.33922458,11.1193936 0.219300748,10.0219421 C-0.0689598386,9.73946575 -0.0736488778,9.27679201 0.208827495,8.98853139 C0.491303861,8.70027085 0.953977577,8.69558179 1.24223817,8.97805815 C2.11095142,9.82933984 2.91382799,10.2307953 3.65384612,10.2307843 C4.67850311,10.2307691 5.61548459,8.76909813 7.30769224,8.76922068 C8.9998999,8.76936318 9.86246788,10.2308047 10.9595765,10.230787 C12.0566851,10.2307691 12.8229359,8.76936318 14.6153845,8.76922068 Z M1.24223817,6.05498126 C2.11094306,6.90625477 2.91381842,7.30769224 3.65384612,7.30769224 C4.05743905,7.30769224 4.38461534,7.63486903 4.38461534,8.03846147 C4.38461534,8.44205435 4.05743905,8.76923069 3.65384612,8.76923069 C2.48505992,8.76923069 1.33921735,8.19630959 0.219300748,7.09886522 C-0.0689598386,6.81638886 -0.0736488778,6.35371512 0.208827495,6.0654545 C0.491303861,5.77719396 0.953977577,5.7725049 1.24223817,6.05498126 Z M14.6153847,5.84615394 C16.3751841,5.84611945 17.2244093,7.30769239 18.2763418,7.30772703 C19.0118541,7.31488448 19.8113431,6.91513997 20.6783692,6.05741297 C20.9652869,5.77357256 21.4279776,5.77606718 21.711818,6.06298479 C21.9956584,6.3499024 21.9931638,6.81259317 21.7062461,7.09643351 C20.5846507,8.20599952 19.4369304,8.76919634 18.2621198,8.76919634 C16.5707941,8.76919634 15.7741169,7.30769239 14.6153847,7.30769239 C13.4566525,7.30769239 12.6378508,8.76936318 10.963493,8.76923084 C9.28913521,8.76909849 8.46241387,7.3077586 7.30769246,7.30769239 C6.9040998,7.30769239 6.57692324,6.9805159 6.57692324,6.57692317 C6.57692324,6.17333058 6.9040998,5.84615394 7.30769246,5.84615394 C9.05697487,5.84628629 9.88831701,7.30762626 10.9595841,7.30769239 C12.0308513,7.3077586 12.8555853,5.84618851 14.6153847,5.84615394 Z M7.30769224,2.92307689 C7.71128512,2.92307689 8.03846147,3.25025369 8.03846147,3.65384613 C8.03846147,4.02861097 7.74844321,4.38461535 7.30769224,4.38461535 C6.15026633,4.38461535 5.32128721,5.84611945 3.65384612,5.8461538 C2.48505992,5.8461538 1.33921735,5.2732327 0.219300748,4.17578833 C-0.0689598386,3.89331197 -0.0736488778,3.43063823 0.208827495,3.14237761 C0.491303861,2.85411707 0.953977577,2.84942801 1.24223817,3.13190437 C2.11094306,3.98317788 2.91381842,4.38461535 3.65384612,4.38461535 C4.84357277,4.38461535 5.4793903,2.92311622 7.30769224,2.92307689 Z M14.6153846,2.92307705 C16.3094402,2.92307705 17.1859342,4.37969918 18.2763418,4.38465014 C19.0118541,4.39180758 19.8113431,3.99206308 20.6783692,3.13433608 C20.9652869,2.85049567 21.4279776,2.85299029 21.711818,3.1399079 C21.9956584,3.42682551 21.9931638,3.88951628 21.7062461,4.17335662 C20.5846507,5.28292263 19.4363103,5.84611945 18.2621198,5.84611945 C16.6053541,5.84611945 15.7736988,4.38953182 14.6153846,4.3846155 C13.4570705,4.37969918 12.6591302,5.84611945 10.963493,5.8461566 C10.5599017,5.84723081 10.2318513,5.52093044 10.2307114,5.11733924 C10.2296926,4.71374797 10.5559929,4.38569755 10.9595841,4.3846155 C12.0151597,4.37969918 12.9213291,2.92307705 14.6153846,2.92307705 Z M14.6153845,3.50830476e-14 C15.0189774,3.50830476e-14 15.3461537,0.327176799 15.3461537,0.73076924 C15.3461537,1.10553408 15.037642,1.46155812 14.6153845,1.46153846 C13.4024979,1.46148197 12.6740192,2.91857837 10.9634853,2.92311337 C9.25295154,2.92762748 8.47392078,1.46153846 7.30769224,1.46153846 C6.14146371,1.46153846 5.36882134,2.92307691 3.65384612,2.92311337 C2.4850653,2.92311337 1.33922458,2.3501629 0.219300748,1.25271144 C-0.0689598386,0.97023508 -0.0736488778,0.507561335 0.208827495,0.219300719 C0.491303861,-0.068959824 0.953977577,-0.0736488777 1.24223817,0.208827481 C2.11095142,1.06010917 2.91382799,1.46155366 3.65384612,1.46155366 C4.7139433,1.45662229 5.58268738,3.50830476e-14 7.30769224,3.50830476e-14 C9.03269704,3.50830476e-14 9.86919234,1.4644611 10.9595765,1.46155629 C12.0499607,1.45865141 12.8648824,3.50830476e-14 14.6153845,3.50830476e-14 Z" id="Combined-Shape"></path>
                            </g>
                        </g>
                    </g>
                </g>
            </g>
        </g>
    </g>
</svg>